<?xml version="1.0" encoding="iso-8859-1"?>
<!-- Generator: Adobe Illustrator 19.0.0, SVG Export Plug-In . SVG Version: 6.00 Build 0)  -->
<svg version="1.1" id="Capa_1" xmlns="http://www.w3.org/2000/svg" xmlns:xlink="http://www.w3.org/1999/xlink" x="0px" y="0px"
	 viewBox="0 0 512 512" style="enable-background:new 0 0 512 512;" xml:space="preserve">
<path style="fill:#2CA7C1;" d="M186.853,100.567c94.131,37.191,166.403,151.717,116.516,294.25H182.214
	c0,0,26.855-197.908-8.193-281.213C170.629,105.542,178.719,97.353,186.853,100.567z"/>
<path style="opacity:0.1;enable-background:new    ;" d="M291.702,193.617c-1.704,1.996-3.385,4.019-5.016,6.099
	c-14.117,17.999-25.179,39.035-33.039,62.534c-7.442-11.906-16.407-22.843-26.812-32.565
	c-10.844-10.132-22.936-18.722-35.965-25.667c4.857,82.175-6.776,176.301-8.456,189.279h121.469
	C330.608,315.694,321.136,246.468,291.702,193.617z"/>
<path style="fill:#CDEDFF;" d="M394.231,373.297H124.788c-24.362,0-44.111,19.749-44.111,44.111l0,0
	c0,24.362,19.749,44.111,44.111,44.111H394.23c24.362,0,44.111-19.749,44.111-44.111l0,0
	C438.341,393.045,418.592,373.297,394.231,373.297z"/>
<path style="opacity:0.1;enable-background:new    ;" d="M215,373.297h-90.212c-24.362,0-44.111,19.749-44.111,44.111l0,0
	c0,24.362,19.749,44.111,44.111,44.111h96.62C174.723,442.216,183.439,388.084,215,373.297z"/>
<path style="fill:#E9CA59;" d="M259.509,373.297v-17.926c0-106.852,50.18-204.664,192.764-211.957
	c9.823-0.502,14.318,11.967,6.477,17.906c-57.342,43.436-75.08,121.323-75.08,211.976H259.509V373.297z"/>
<path style="fill:#E36FA5;" d="M259.509,373.297v-17.926c0-114.441-108.947-177.489-210.813-142.727
	c-9.112,3.11-8.799,16.123,0.415,18.915c63.04,19.107,86.237,49.215,86.237,141.737h124.161V373.297z"/>
<path style="opacity:0.1;enable-background:new    ;" d="M42.283,224.248c0.723,3.237,3.008,6.152,6.828,7.31
	c63.04,19.108,86.237,49.215,86.237,141.738h80.186C215.776,242.929,92.836,224.59,42.283,224.248z"/>
<circle style="fill:#58B09B;" cx="467.78" cy="143.401" r="44.22"/>
<path style="opacity:0.1;enable-background:new    ;" d="M473.086,138.096c-2.929-2.929-7.677-2.93-10.607,0
	c-2.929,2.929-2.929,7.678,0,10.606l30.81,30.81c2.02-1.43,3.952-3.038,5.76-4.847c1.809-1.809,3.417-3.741,4.846-5.76
	L473.086,138.096z"/>
<circle style="fill:#58B09B;" cx="169.48" cy="94.701" r="44.22"/>
<path style="opacity:0.1;enable-background:new    ;" d="M174.787,89.404c-2.93-2.929-7.678-2.929-10.607,0l-30.81,30.81
	c1.43,2.02,3.038,3.951,4.846,5.76c1.809,1.809,3.741,3.417,5.761,4.847l30.81-30.81C177.716,97.082,177.716,92.333,174.787,89.404z
	"/>
<circle style="fill:#58B09B;" cx="44.22" cy="219.971" r="44.22"/>
<path style="opacity:0.1;enable-background:new    ;" d="M49.521,214.669l-30.81-30.81c-2.02,1.43-3.952,3.038-5.76,4.846
	c-1.809,1.809-3.417,3.741-4.847,5.761l30.809,30.81c1.465,1.464,3.385,2.197,5.304,2.197c1.919,0,3.839-0.732,5.304-2.197
	C52.45,222.347,52.45,217.597,49.521,214.669z"/>
<g>
	<path style="fill:#4A4D58;" d="M195.925,420.338c-4.143,0-7.5-3.358-7.5-7.5v-10.732c0-4.142,3.357-7.5,7.5-7.5s7.5,3.358,7.5,7.5
		v10.732C203.425,416.98,200.067,420.338,195.925,420.338z"/>
	<path style="fill:#4A4D58;" d="M259.509,439.166L259.509,439.166c-10.005,0-18.115-8.111-18.115-18.115v-13.17
		c0-2.731,2.214-4.945,4.945-4.945h26.34c2.731,0,4.945,2.214,4.945,4.945v13.17C277.625,431.056,269.514,439.166,259.509,439.166z"
		/>
	<path style="fill:#4A4D58;" d="M323.095,420.338c-4.143,0-7.5-3.358-7.5-7.5v-10.732c0-4.142,3.357-7.5,7.5-7.5s7.5,3.358,7.5,7.5
		v10.732C330.595,416.98,327.237,420.338,323.095,420.338z"/>
</g>
<g>
	<circle style="fill:#2CA7C1;" cx="141.24" cy="417.401" r="14.332"/>
	<circle style="fill:#2CA7C1;" cx="377.78" cy="417.401" r="14.332"/>
</g>
<g>
</g>
<g>
</g>
<g>
</g>
<g>
</g>
<g>
</g>
<g>
</g>
<g>
</g>
<g>
</g>
<g>
</g>
<g>
</g>
<g>
</g>
<g>
</g>
<g>
</g>
<g>
</g>
<g>
</g>
</svg>
